<?xml version="1.0" standalone="no"?>
<!DOCTYPE svg PUBLIC "-//W3C//DTD SVG 20010904//EN"
 "http://www.w3.org/TR/2001/REC-SVG-20010904/DTD/svg10.dtd">
<svg version="1.0" xmlns="http://www.w3.org/2000/svg"
 width="512.000000pt" height="512.000000pt" viewBox="0 0 512.000000 512.000000"
 preserveAspectRatio="xMidYMid meet">

<g transform="translate(0.000000,512.000000) scale(0.100000,-0.100000)"
fill="#000000" stroke="none">
<path d="M1158 4900 c-229 -28 -450 -134 -620 -298 -177 -171 -289 -402 -318
-652 -14 -119 -13 -1803 1 -1927 28 -255 152 -504 332 -669 125 -115 302 -213
453 -250 l63 -16 3 -368 3 -368 30 -44 c60 -85 179 -118 264 -73 19 10 311
201 647 426 l613 408 698 3 698 4 90 26 c435 127 735 479 784 921 14 124 15
1808 1 1927 -40 346 -233 640 -535 817 -75 44 -196 92 -293 116 -87 21 -94 21
-1467 23 -759 1 -1410 -2 -1447 -6z m2817 -435 c216 -45 409 -223 478 -440
l22 -70 0 -965 0 -965 -23 -75 c-53 -169 -168 -306 -323 -385 -139 -71 -105
-68 -915 -74 l-731 -6 -492 -328 c-270 -180 -493 -327 -496 -327 -2 0 -5 119
-7 263 l-3 264 -27 39 c-47 67 -83 84 -210 99 -137 17 -174 27 -258 71 -126
66 -224 165 -284 289 -67 138 -66 113 -66 1132 0 1027 -1 996 70 1139 87 172
249 299 432 339 97 21 2732 21 2833 0z"/>
<path d="M1230 3621 c-104 -32 -160 -106 -160 -211 0 -84 53 -161 132 -194 33
-14 187 -16 1358 -16 1447 0 1358 -4 1424 58 81 76 88 220 13 300 -12 13 -40
34 -62 45 l-40 22 -1320 2 c-726 1 -1331 -2 -1345 -6z"/>
<path d="M1620 2754 c-173 -75 -161 -342 18 -394 26 -8 318 -10 944 -8 l906 3
44 30 c138 97 118 306 -34 370 -33 13 -147 15 -940 15 -784 -1 -908 -3 -938
-16z"/>
</g>
</svg>
